<?xml version="1.0" encoding="utf-8"?>
<!-- Generator: Adobe Illustrator 23.0.1, SVG Export Plug-In . SVG Version: 6.00 Build 0)  -->
<svg version="1.1" id="Layer_1" xmlns="http://www.w3.org/2000/svg" xmlns:xlink="http://www.w3.org/1999/xlink" x="0px" y="0px"
	 viewBox="0 0 9.6 9.6" style="enable-background:new 0 0 9.6 9.6;" xml:space="preserve">
<style type="text/css">
	.st0{fill:#FFFFFF;}
</style>
<path class="st0" d="M9.4,4.4c-0.2-0.3-0.7-0.3-0.9,0L5.5,7.4V0.6C5.5,0.3,5.2,0,4.8,0S4.2,0.3,4.2,0.6v6.8L1.1,4.4
	c-0.3-0.3-0.7-0.3-0.9,0s-0.3,0.7,0,0.9l4.2,4.2c0.1,0.1,0.1,0.1,0.2,0.1c0.1,0,0.1,0,0.2,0c0,0,0,0,0,0c0,0,0,0,0,0s0,0,0,0
	c0.1,0,0.2,0,0.2-0.1c0.1,0,0.1-0.1,0.2-0.1c0,0,0,0,0,0l4.2-4.2C9.7,5,9.7,4.6,9.4,4.4z"/>
</svg>
