<?xml version="1.0" encoding="utf-8"?>
<!-- Generator: Adobe Illustrator 24.2.0, SVG Export Plug-In . SVG Version: 6.00 Build 0)  -->
<svg version="1.1" id="Layer_1" xmlns="http://www.w3.org/2000/svg" xmlns:xlink="http://www.w3.org/1999/xlink" x="0px" y="0px"
	 viewBox="0 0 3059.7 383.2" style="enable-background:new 0 0 3059.7 383.2;" xml:space="preserve">
<style type="text/css">
	.st0{clip-path:url(#SVGID_2_);}
	.st1{fill:#FFFFFF;}
	.st2{fill:#E2E6EA;}
	.st3{fill:#E5745D;fill-opacity:0.14;}
</style>
<g>
	<defs>
		<path id="SVGID_1_" d="M3059.7,383.2c0,0-434.5-486.4-691.5-363.2c-199.1,92.7-380.5,170.7-544.1,234
			c-163.6,63.4-344.7,90.7-543.5,82s-367.5-90.2-506-244.4C613.6-74,149.6,361.8,0,383.2H3059.7z"/>
	</defs>
	<clipPath id="SVGID_2_">
		<use xlink:href="#SVGID_1_"  style="overflow:visible;"/>
	</clipPath>
	<g class="st0">
		<path class="st1" d="M3059.7,383.2c0,0-434.5-486.4-691.5-363.2c-199.1,92.7-380.5,170.7-544.1,234
			c-163.6,63.4-344.7,90.7-543.5,82s-367.5-90.2-506-244.4C613.6-74,149.6,361.8,0,383.2H3059.7z"/>
		<path class="st2" d="M1740.3,336c110.5,11.8,223.6-14.3,339.4-78.3S2239,96.6,2210.1-33.8c-28.9-130.3-58.3-246.7-88.2-349
			c-29.9-102.3-83.7-199.9-161.3-292.6c-77.7-92.7-179.3-144-305-153.8c-125.6-9.9-242.3,17-350.1,80.5
			c-107.8,63.6-164.4,155.8-169.9,276.7c-5.5,120.9-28.2,236.1-68,345.5c-39.8,109.5-22.4,210.9,52.2,304.4
			c74.6,93.5,169.1,140.2,283.4,140.3C1517.5,318.3,1629.8,324.2,1740.3,336z"/>
		<path class="st3" d="M1327.4,361.4c-102.4,17.1-209.4-1.1-321-54.4C894.8,253.6,848.9,165.3,868.7,42.1
			c19.8-123.2,40.9-233.4,63.1-330.6c22.3-97.1,67.1-191.1,134.5-281.9c67.4-90.8,159.5-144.2,276.2-160.3s227.1,2.5,331.1,55.9
			c104.1,53.4,162,136.4,173.8,248.9c11.8,112.5,39.3,218.8,82.4,318.7c43.2,100,32.5,195.6-32,286.9
			c-64.5,91.3-150.1,140.2-256.7,146.5C1534.4,332.6,1429.9,344.3,1327.4,361.4z"/>
	</g>
</g>
</svg>
